<?xml version="1.0" encoding="utf-8"?>
<!-- Generator: Adobe Illustrator 17.0.0, SVG Export Plug-In . SVG Version: 6.00 Build 0)  -->
<!DOCTYPE svg PUBLIC "-//W3C//DTD SVG 1.1//EN" "http://www.w3.org/Graphics/SVG/1.1/DTD/svg11.dtd">
<svg version="1.1" id="Icons" xmlns="http://www.w3.org/2000/svg" xmlns:xlink="http://www.w3.org/1999/xlink" x="0px" y="0px"
	 width="28px" height="28px" viewBox="0 0 28 28" enable-background="new 0 0 28 28" xml:space="preserve">
<path id="Voronej" fill="#FFFFFF" d="M13.865,6.892l4.208,4.154l-0.763,0.817l-2.537,0.007l-0.801,0.801l2.69,2.669
	c0,0-1.004,1.829-2.321,3.151c-2.221,2.217-6.125,2.414-8.354,2.32l-1.008,1.002l1.37,1.37l-0.831,1.726L0,19.395l1.795-0.765
	l1.226,1.225l1.137-1.132c-0.074-2.312,0.137-6.087,2.092-7.889c1.175-1.079,3.332-2.519,3.332-2.519l2.647,2.626l0.82-0.66
	l0.007-2.624L13.865,6.892z M27.877,20.13c-0.378-1.083-0.99-0.967-0.99-5.675C26.887,9.589,24.432,4,19.909,4
	c-1.844,0-2.557,0.511-3.979,2.489l1.656,1.609c0,0,0.752-1.203,1.891-1.203c1.193,0,2.664,0.581,2.664,3.813
	c0,0.726-0.587,2.387-1.138,3.123c-0.894,1.195-1.227,2.172-0.854,2.735c0.058,0.088,0.217,0.225,0.312,0.281
	c0.92,0.54,1.706-1.742,2.438-1.203c0.875,0.645,0.143,2.126-0.406,3.729c-0.551,1.614-0.85,3.568,0.457,3.541
	c0.835-0.019,0.695-0.656,1.08-1.745c0.353-0.997,0.504-2.4,1.26-2.4c1.561,0,0.471,3.146,1.785,3.146
	c0.387,0,0.745,0.123,0.868-0.481C28.014,21.086,28.004,20.496,27.877,20.13z"/>
</svg>
