<?xml version="1.0" encoding="utf-8"?>
<!-- Generator: Adobe Illustrator 17.0.0, SVG Export Plug-In . SVG Version: 6.00 Build 0)  -->
<!DOCTYPE svg PUBLIC "-//W3C//DTD SVG 1.1//EN" "http://www.w3.org/Graphics/SVG/1.1/DTD/svg11.dtd">
<svg version="1.1" id="Icons" xmlns="http://www.w3.org/2000/svg" xmlns:xlink="http://www.w3.org/1999/xlink" x="0px" y="0px"
	 width="28px" height="28px" viewBox="0 0 28 28" enable-background="new 0 0 28 28" xml:space="preserve">
<path id="Perm" fill="#FFFFFF" d="M25.934,21.535l2.01,3.042v1.617l-1.359,1.78H22.04l0.053-1.045l2.763-1.172l-2.437-3.25
	l-2.484,2.034v1.934l-1.396,1.499h-3.479v-0.967l2.526-1.574l-2.245-3.595l-3.392,0.089v4.527l-1.365,1.52H7.16v-1.278l2.82-0.689
	l-1.984-3.109L5.845,22.93c0,0-2.252,3.172-3.518,1.562c-0.362-0.461-0.419-0.875-0.206-1.293c0.125-0.247,0.348-0.401,0.648-0.701
	c0.808-0.81,3.383-3.211,3.383-3.211l-0.017-2.232l-1.878-2.156H1.293L0,13.552V12h1.605l1.469-1.956H4.03V9.086h1.337l0.435,0.953
	h4.411l1.826,2.062c0,0,11.38,0,13.529,0c2.15,0,2.378,2.614,2.378,2.614l-0.04,1.762l-1.973,1.309V21.535z M14.013,9.157V0.741
	C14.013,0.332,14.346,0,14.755,0h6.409c0.41,0,0.744,0.332,0.744,0.741v8.416c0,0.407-0.334,0.741-0.744,0.741h-6.409
	C14.346,9.898,14.013,9.564,14.013,9.157z M15.184,5.008h1.687V7.9h2.156V5.008h1.672V2.909h-1.672V1.258h-2.156v1.651h-1.687V5.008
	z"/>
</svg>
