<?xml version="1.0" encoding="utf-8"?>
<!-- Generator: Adobe Illustrator 18.0.0, SVG Export Plug-In . SVG Version: 6.00 Build 0)  -->
<!DOCTYPE svg PUBLIC "-//W3C//DTD SVG 1.1//EN" "http://www.w3.org/Graphics/SVG/1.1/DTD/svg11.dtd">
<svg version="1.1" id="Icons" xmlns="http://www.w3.org/2000/svg" xmlns:xlink="http://www.w3.org/1999/xlink" x="0px" y="0px"
	 width="28px" height="28px" viewBox="0 0 28 28" enable-background="new 0 0 28 28" xml:space="preserve">
<polygon fill="#FFFFFF" points="6,17 4,17 4,19 2,19 2,17 0,17 0,28 8,28 8,19 6,19 "/>
<polygon fill="#FFFFFF" points="12,5.5 14,4 16,5.5 15,3 17,2 15,2 14,0 13,2 11,2 13,3 "/>
<polygon fill="#FFFFFF" points="26,17 26,19 24,19 24,17 22,17 22,19 20,19 20,28 28,28 28,17 "/>
<path fill="#FFFFFF" d="M14,6l-3,8H9v14h3v-4c0-1.105,0.895-2,2-2s2,0.895,2,2v4h3V14h-2L14,6z M14,18c-1.105,0-2-0.895-2-2
	c0-1.105,0.895-2,2-2s2,0.895,2,2C16,17.105,15.105,18,14,18z"/>
</svg>
