<?xml version="1.0" encoding="utf-8"?>
<!-- Generator: Adobe Illustrator 18.0.0, SVG Export Plug-In . SVG Version: 6.00 Build 0)  -->
<!DOCTYPE svg PUBLIC "-//W3C//DTD SVG 1.1//EN" "http://www.w3.org/Graphics/SVG/1.1/DTD/svg11.dtd">
<svg version="1.1" id="Icons" xmlns="http://www.w3.org/2000/svg" xmlns:xlink="http://www.w3.org/1999/xlink" x="0px" y="0px"
	 width="28px" height="28px" viewBox="0 0 28 28" enable-background="new 0 0 28 28" xml:space="preserve">
<path fill="#FFFFFF" d="M23,16c0-1.746,0.943-2,2-2c0-1.204-1-4-4-4c-1.526,0-6.138,1-10,1c-1.782,0-3-5-4-6c1,0,2,0.417,2-1
	C8,4,8,4,7,4H6l3-2h1l1-1h1l0.031-0.969L11,0l-1,1H9L6.333,3L7,1H6v2.25L5,4C4.551,4,4.312,5.344,3.203,6.391
	c0,0-1.234,0.469-1.203,1.109s0,1,1,1C3.922,8.016,4,8,5,8c0.172,0,1-0.328,1-0.5c0.297,1.25,0.528,2.622,1,5.5c0.47,2.878,3,4,3,4
	v8l-1,1v1h1l1-2v-6l3,6l-1,1v1h1l1-2c0,0-2-4.391-2-6c0-1.44,0-1.055,0-2c2.091,0.052,2.113-0.2,6-1c0.264,2.25,3,4,3,4
	c0.281,2.482,0,5,0,5l-1,1v1h1l1-2v-6l2,2v4l-1,1v1h1l1-2v-5C26,20,23,17.31,23,16z"/>
</svg>
