<?xml version="1.0" encoding="utf-8"?>
<!-- Generator: Adobe Illustrator 17.0.0, SVG Export Plug-In . SVG Version: 6.00 Build 0)  -->
<!DOCTYPE svg PUBLIC "-//W3C//DTD SVG 1.1//EN" "http://www.w3.org/Graphics/SVG/1.1/DTD/svg11.dtd">
<svg version="1.1" id="Icons" xmlns="http://www.w3.org/2000/svg" xmlns:xlink="http://www.w3.org/1999/xlink" x="0px" y="0px"
	 width="28px" height="28px" viewBox="0 0 28 28" enable-background="new 0 0 28 28" xml:space="preserve">
<path id="Volgograd" fill-rule="evenodd" clip-rule="evenodd" fill="#FFFFFF" d="M23.181,16.055l0.741,0.883v1.208l-0.741,0.792
	h-1.114c-0.174,0.792-1.077,2.287-1.573,3.047l1.759,1.368l-2.657,2.813l-1.778-1.777c0,0-1.208,0.394-1.865,0.549v1.104
	l-0.941,0.948h-1.856l-1.094-0.948v-1.05c-0.841-0.174-1.24-0.418-1.854-0.604l-1.779,1.777L5.77,23.353l1.759-1.368
	c-0.496-0.76-1.4-2.255-1.574-3.047H4.842l-0.741-0.792v-1.208l0.741-0.883l3.14,0.013c0,0,0,1.676,0,2.22
	c0,2.792,2.818,4.827,6.074,4.827c3.256,0,5.985-2.035,5.985-4.827c0-0.544,0-2.22,0-2.22L23.181,16.055z M23.823,8.007
	c1.845,0,3.664-0.054,4.046-0.623c-0.252-0.483-1.24-1.327-1.682-1.327c-0.374,0-1.079,0.024-1.079,0.024s-0.029-0.85-0.122-1.213
	c-0.161-0.634-0.795-1.293-1.443-1.624c-0.572,0.381-0.424,2.909-0.424,4.047c0-0.59-0.95-2.012-1.295-2.109
	c-0.461,0.129-0.625,0.609-0.654,2.916c-0.162,0.111-0.329,0.231-0.503,0.365c-0.432-0.397-0.975-0.852-1.293-0.962
	c-0.182,0.183-0.18,0.587-0.181,1.323c0,0.239,0.003,0.603,0.006,0.994c-1.294,1.41-2.513,3.452-2.809,6.301h-1.53V8.697
	c0.442-0.194,0.92-0.427,1.085-0.597c1.243-1.346,0.943-1.904,0.943-1.904s-1.061-0.397-2.266,0.07
	c1.7-1.748,2.511-2.403,2.366-3.109c-0.347-0.228-1.573-0.176-2.156,0.05c1.377-1.416,2.196-2.389,2.054-3.12
	c-0.15-0.048-0.011-0.043-0.212-0.005c-0.534,0.102-1.168,0.438-1.458,0.622c-0.366,0.231-1.188,0.844-1.188,0.844
	s-0.719-0.594-1.156-0.953c-0.326-0.268-0.719-0.52-0.994-0.52c-0.238-0.054-0.492-0.051-0.779,0.045
	c-0.142,0.733,1.177,2.265,2.026,3.137c-0.44-0.45-1.604-0.349-1.936-0.16c-0.277,0.506-0.055,0.921,2.06,3.097
	c-0.259-0.266-1.689-0.305-2.159-0.067c-0.141,0.727-0.048,1.075,0.5,1.641c0.348,0.359,1.061,0.721,1.621,0.971v7.383h-1.415
	c-0.296-2.85-1.514-4.891-2.809-6.301c0.003-0.391,0.006-0.755,0.006-0.994c-0.001-0.736,0.002-1.141-0.18-1.323
	c-0.318,0.11-0.861,0.565-1.293,0.962C7.348,8.329,7.18,8.208,7.019,8.098C6.99,5.791,6.826,5.311,6.365,5.182
	c-0.345,0.098-1.295,1.52-1.295,2.109c0-1.138,0.148-3.666-0.424-4.047c-0.648,0.331-1.282,0.99-1.443,1.624
	C3.11,5.231,3.081,6.081,3.081,6.081S2.376,6.057,2.002,6.057c-0.442,0-1.43,0.844-1.683,1.327c0.382,0.569,2.202,0.623,4.046,0.623
	C3.828,8.249,2.293,9.189,2.21,9.573c0.362,0.557,1.671,0.348,3.947,0.348c-0.883,0.883-1.884,1.951-1.884,1.951
	s0.707,0.079,1.698,0.079c0.359,0,2.061-0.02,2.724-0.027c0.737,1.077,1.336,2.457,1.542,4.195h-0.087c0,0,0,2.012,0,2.696
	C10.149,19.5,12.577,21,14,21c1.423,0,3.962-1.396,3.962-2.185c0-0.789,0-2.696,0-2.696h-0.01c0.206-1.738,0.805-3.118,1.542-4.195
	c0.663,0.007,2.365,0.027,2.725,0.027c0.991,0,1.698-0.079,1.698-0.079s-1.001-1.068-1.884-1.951c2.276,0,3.585,0.209,3.947-0.348
	C25.896,9.189,24.361,8.249,23.823,8.007z"/>
</svg>
