<?xml version="1.0" encoding="utf-8"?>
<!-- Generator: Adobe Illustrator 17.0.0, SVG Export Plug-In . SVG Version: 6.00 Build 0)  -->
<!DOCTYPE svg PUBLIC "-//W3C//DTD SVG 1.1//EN" "http://www.w3.org/Graphics/SVG/1.1/DTD/svg11.dtd">
<svg version="1.1" id="Icons" xmlns="http://www.w3.org/2000/svg" xmlns:xlink="http://www.w3.org/1999/xlink" x="0px" y="0px"
	 width="28px" height="28px" viewBox="0 0 28 28" enable-background="new 0 0 28 28" xml:space="preserve">
<g id="Nijniy-Novgorod">
	<path fill="#FFFFFF" d="M22.024,18.904c0,0-0.135,0.695-0.135-1.773c0-2.467-1.709-3.025-3.099-3.025c-1.388,0-0.487,0-3.572,0
		c-1.232,0-2.354-0.576-2.354-1.734c0-1.157,0-1.736,0-4.436c1.507,0,1.926-0.45,2-0.852c0.123,0,0.249-0.034,0.359-0.107
		c0.133-0.084,0.243-0.188,0.336-0.302c1.186-0.585,2.291-1.392,3.106-2.117c1.392-1.276,2.578-3.131,2.595-3.151
		c0.198-0.306,0.11-0.716-0.194-0.913c-0.306-0.197-0.716-0.107-0.913,0.197c0,0.004-0.795,1.215-1.748,2.256
		c-0.307-1.319-1.101-2.573-1.108-2.621c-0.188-0.312-0.595-0.413-0.907-0.227c-0.312,0.188-0.413,0.593-0.227,0.906V1.002
		c0,0.002,0.268,0.449,0.535,1.043c0.271,0.588,0.521,1.34,0.512,1.762c0,0.182-0.041,0.275-0.06,0.297
		c-0.054,0.075-0.089,0.158-0.108,0.243c-0.347,0.38-0.694,0.745-1.143,1.047c-0.125-1.168-0.909-2.166-0.92-2.222
		c-0.212-0.295-0.623-0.364-0.92-0.153c-0.297,0.211-0.365,0.622-0.156,0.919c0,0,0.18,0.251,0.36,0.608
		c0.188,0.353,0.349,0.813,0.341,1.066c-0.016,0.189-0.026,0.194-0.106,0.261c-0.06,0.039-0.104,0.092-0.146,0.145
		c-0.415,0.082-0.896,0.13-1.464,0.13l-0.63-0.012c-0.55,0.016-1.292-1.041-1.9-2.39c-0.046-0.096-0.089-0.195-0.133-0.293
		c0.002-0.01,0.007-0.018,0.009-0.028c-0.028-0.214,0.571-0.91,1.259-1.361c0.667-0.479,1.325-0.805,1.325-0.809
		c0.326-0.164,0.458-0.558,0.294-0.885c-0.163-0.326-0.56-0.459-0.885-0.295h-0.002c-0.017,0.012-0.732,0.369-1.5,0.912
		C10.365,1.26,9.977,1.552,9.649,1.9c-0.194-0.642-0.3-1.166-0.291-1.35C9.358,0.186,9.127,0,8.763,0L8.669,0.062
		c-0.362,0-0.629,0.124-0.629,0.488H8.037c0.017,0.799,0.434,2.27,1.132,3.762c0.026,0.052,0.048,0.102,0.073,0.153
		C8.5,4.453,7.783,4.204,7.254,3.938c-0.545-0.272-1.18-0.803-1.188-0.799c-0.284-0.227-0.699-0.18-0.926,0.105
		C4.913,3.527,4.96,3.943,5.244,4.17c0.055,0.029,1.745,1.542,3.858,1.562c0,0,0.431-0.013,0.723-0.025
		c0.214,0.428,0.452,0.799,0.767,1.083l-1.167,1.24H7.692L7.249,8.805l0.365,1.064h2.497v2.442c0,0-2.037,1.973-2.037,3.233
		c0,0.926,0,1.459,0,1.459H5.973l-1.465,0.262L4,17.882v5.024h1.581v-3.793L6.16,18.47l2.727,0.065l2.446,2.796v6.576h1.644v-7.605
		l1.141-1.334l3.514-0.048c0.363,2.212,2.406,2.913,2.406,2.913s0.582,0,1.02,0c1.08,0,1.274,0.191,1.274,0.963
		c0,0.77,0,5.111,0,5.111h1.622c0,0,0-4.872,0-6.568C23.954,19.641,23.045,19.258,22.024,18.904z"/>
</g>
</svg>
