<?xml version="1.0" encoding="utf-8"?>
<!-- Generator: Adobe Illustrator 17.0.0, SVG Export Plug-In . SVG Version: 6.00 Build 0)  -->
<!DOCTYPE svg PUBLIC "-//W3C//DTD SVG 1.1//EN" "http://www.w3.org/Graphics/SVG/1.1/DTD/svg11.dtd">
<svg version="1.1" id="Icons" xmlns="http://www.w3.org/2000/svg" xmlns:xlink="http://www.w3.org/1999/xlink" x="0px" y="0px"
	 width="28px" height="28px" viewBox="0 0 28 28" enable-background="new 0 0 28 28" xml:space="preserve">
<path id="Novosibirsk" fill="#FFFFFF" d="M21.393,10.552c-0.338,0.807-1.199,1.244-2.035,1.244c-1.018,0-1.596-1.645-1.596-2.102
	c0.714,0.005,2.796-0.781,3.562-2.094c0.293-0.496,0.442-0.985,0.595-1.518V4.489c0,0,0-0.614,0-0.618
	c-0.429,0.019-1.41-0.074-1.41,1.061c0,1.358-0.197,1.313-0.477,1.817c-0.709,1.272-3.117,1.06-3.117,1.06
	c-0.837-1.167-2.776-3.406-3.169-3.554c-0.177-0.066-0.065-0.961-0.065-0.961l2.172-0.483c0,0,0.038-0.77,0.038-1.005
	c0-0.201-3.724-0.752-3.724-0.752l-0.217-1.052l-0.975,0.011l0.002,0.88c0,0-1.031,0.24-1.016,2.144
	c0.007,0.863,2.782,4.222,2.984,5.949c0.036,0.325,0.062,1.677,0.062,2.281c0,3.254-2.267,4.767-2.375,4.888
	c-0.231,0.249-1.109,1.468-1.987,0.819c-0.88-0.649-0.435-1.1,1.046-2.754c0.859-1.054,1.79-2.387,0.859-4.747
	C9.711,7.345,7.174,5.082,6.691,4.93c-0.48-0.156-1.052,0.067-1.31,0.335c-1.273,1.312,1.626,4.259,1.626,6.107
	c0,3.17-1.028,3.463-1,4.764c0.01,0.403,0.06,0.8,0.446,1.316c0.869,1.16,2.337,0.815,3.242,0.815l0.426,0.326L10.06,22.24
	c-0.452,0.316-1.938,0.596-1.996,1.31c-0.007,0.691-0.012,2.009-0.021,2.697c0.11,0.624,0.698,1.588,1.327,1.706
	c0.188,0.041,2.057,0.087,2.515,0l-0.076-0.861c-0.139-0.549-0.666-0.56-1.709-0.56c-0.4,0-0.951-0.648-0.951-1.376
	c0-0.519,0.403-0.992,0.777-1.146c2.838,0,3.794-0.994,3.794-1.855l1.832-0.033l0.474,0.677c-0.003,0.365,0.057,3.081,0.053,3.407
	c0.088,0.661,0.668,1.594,1.298,1.712c0.188,0.041,1.387,0.077,2.554,0.077l-0.075-0.861c-0.14-0.549-0.63-0.624-1.671-0.624
	c-0.402,0-0.894-0.712-0.894-1.424c0-1.328,1.462-2.59,1.462-4.071c0-1.763-0.802-2.6-2.511-3.419
	c-0.407-0.103-0.738-0.528-0.81-1.562c-0.018-0.294,0.1-0.713,0.227-1.02c0.461-1.065,0.831-0.971,1.262-2.476h0.971
	c0.46,0.982,1.489,0.922,2.056,0.922c0.861,0,1.652-1.056,2.098-1.515c0.249-0.228,0.694-0.309,0.893-0.47l0.006-1.757
	C22.942,9.721,21.809,9.553,21.393,10.552z"/>
</svg>
