<?xml version="1.0" encoding="utf-8"?>
<!-- Generator: Adobe Illustrator 17.0.0, SVG Export Plug-In . SVG Version: 6.00 Build 0)  -->
<!DOCTYPE svg PUBLIC "-//W3C//DTD SVG 1.1//EN" "http://www.w3.org/Graphics/SVG/1.1/DTD/svg11.dtd">
<svg version="1.1" id="Icons" xmlns="http://www.w3.org/2000/svg" xmlns:xlink="http://www.w3.org/1999/xlink" x="0px" y="0px"
	 width="28px" height="28px" viewBox="0 0 28 28" enable-background="new 0 0 28 28" xml:space="preserve">
<path id="Ekaterinburg" fill-rule="evenodd" clip-rule="evenodd" fill="#FFFFFF" d="M17.838,20.903c0,3.009-2.764,3.92-2.764,3.92
	L11.99,24.81c0,0-2.157-2.257-2.088-4.175c0.07-1.895,0.861-1.719,0.861-1.719s0.047,0.378,0.03,0.734
	c-0.037,0.865,0.409,2.438,1.579,2.438c0.902,0,0.968-0.39,0.968-0.984c0-0.643-1.359-1.683-1.359-3.033
	c0-1.8,1.772-2.351,2.707-2.117c-0.188,0.5-0.979,0.82-0.979,2.115c0,1.151,0.669,1.895,1.598,1.895
	c0.653,0,0.691-0.345,0.691-0.766c0-0.872-0.045-1.875-0.045-1.875C16.609,17.491,17.773,19.198,17.838,20.903z M15.84,9.853h-0.125
	V5.824h1.483l0.531-0.717V3.728L17.198,3h-6.595L10.09,3.728v1.378l0.514,0.717h1.512v4.029h-0.204c-3.09,0-4.184,5.094-6.908,5.094
	L5,24.781l2.794,0.033c0,0,0-4.025,0-6.299c0-3.287,3.276-4.88,6.055-4.88c2.779,0,6.133,1.812,6.133,4.847c0,1.763,0,6.299,0,6.299
	h2.86v-9.834C19.828,14.947,18.931,9.853,15.84,9.853z"/>
</svg>
