<?xml version="1.0" encoding="utf-8"?>
<!-- Generator: Adobe Illustrator 18.0.0, SVG Export Plug-In . SVG Version: 6.00 Build 0)  -->
<!DOCTYPE svg PUBLIC "-//W3C//DTD SVG 1.1//EN" "http://www.w3.org/Graphics/SVG/1.1/DTD/svg11.dtd">
<svg version="1.1" id="Icons" xmlns="http://www.w3.org/2000/svg" xmlns:xlink="http://www.w3.org/1999/xlink" x="0px" y="0px"
	 width="28px" height="28px" viewBox="0 0 28 28" enable-background="new 0 0 28 28" xml:space="preserve">
<polygon fill="#FFFFFF" points="25,6 23,6 22,7 22,11 23,14 23,15 21,17 21,16 19,14 19,12 21,12 20,11 21,6 20,4 18,3 17,2 16,2 
	16,3 15,3 14,4 13,4 12,5 12,6 14,6 14,7 12,7 13,9 11,9 7.5,5.5 9,4 10,5 12,3 12,0 9,0 7,2 8,3 3,8 2,8 2,9 3,10 4,10 4,9 
	5.5,7.5 6,8 8,9 10,11 12,11 12,12 10,13 7,15.4 7,13 6,12 4,12 3,14 3,15 4,16 4,14 5,13 6,14 6,16 6.111,16.111 5,17 6,18 10,16 
	10,15 14,15 14,16 13,17 11,18 11,19 12,21 13,24 11,25 8,26 8,27 9,28 12,28 15,24 16,23 15,20 17,20 19,23 21,23 22,25 19,26 
	19,27 20,28 21.84,28.029 24,27 24,21 22,21 21,20 21,18 22,18 23,17 24,15 24,13 23,10 23,8 24,7 25,8 24,9 26,9 26.015,6.961 "/>
</svg>
