<?xml version="1.0" encoding="utf-8"?>
<!-- Generator: Adobe Illustrator 18.0.0, SVG Export Plug-In . SVG Version: 6.00 Build 0)  -->
<!DOCTYPE svg PUBLIC "-//W3C//DTD SVG 1.1//EN" "http://www.w3.org/Graphics/SVG/1.1/DTD/svg11.dtd">
<svg version="1.1" id="Icons" xmlns="http://www.w3.org/2000/svg" xmlns:xlink="http://www.w3.org/1999/xlink" x="0px" y="0px"
	 width="28px" height="28px" viewBox="0 0 28 28" enable-background="new 0 0 28 28" xml:space="preserve">
<path fill="#FFFFFF" d="M27.974,16h-1c0,0,1-4.372,1-6c0-1.822-1.679-1.983-4.999-1.997C22.672,7.706,22.346,7.385,21.974,7
	c-0.808-0.838-2.523-5-5-5c-1.89,0-3,1-4,3c-0.641,1.282-3.928,6.025-5.435,5.579C5.462,9.964,7.644,6.321,7.673,4.174
	c0.05-0.204,0.085-0.428,0.085-0.709C7.758,0.278,6.129,0,4.974,0c-1.155,0-1.758,1-2,1h-2c-0.857,0-0.889,0.718-1,1.5
	c-0.112,0.782,0.367,1.558,1,1.5c0.633-0.055,3-1,3-1s-1,4.982-1,7c0,5.867,4.605,6.905,6,7c0.217,0.014,1,1,1,1v6
	c0,0-1.696,1.44-2,2v1h1c0,0,1.856-1.675,2-2v-3.845l1.672-3.474L13.974,21v4c0,0-1.606,0.785-2,1v1h2l1-2v-9
	c1.747-0.177,3.021-1.007,4-1l-1,4l2,2v3l-2,2v1h2v-1l1-1v-4l0.749-1.499c1.063,0.615,2.188,0.949,2.251,1.499v3
	c0,0-1.853,1.501-2,2v1c0,0,1.72,0,2,0l1-2c0,0,0-3.992,0-5c0-0.697-1-1.065-1-3c0-1.471,1-3.777,1-6
	c0-0.389-0.093-0.714-0.258-1.029c1.11-0.172,2.258-0.809,2.258,0.029c0,2-1.322,4.226-1,6c0.131,0.717,0.583,0.782,1,1h1
	C28.032,16.784,27.974,16,27.974,16z"/>
</svg>
