<?xml version="1.0" encoding="utf-8"?>
<!-- Generator: Adobe Illustrator 17.0.0, SVG Export Plug-In . SVG Version: 6.00 Build 0)  -->
<!DOCTYPE svg PUBLIC "-//W3C//DTD SVG 1.1//EN" "http://www.w3.org/Graphics/SVG/1.1/DTD/svg11.dtd">
<svg version="1.1" id="Icons" xmlns="http://www.w3.org/2000/svg" xmlns:xlink="http://www.w3.org/1999/xlink" x="0px" y="0px"
	 width="28px" height="28px" viewBox="0 0 28 28" enable-background="new 0 0 28 28" xml:space="preserve">
<path id="Omsk" fill="#FFFFFF" d="M25.928,8.956h-2.932v16.862H21V8.956H7.176v16.862H4.975V8.956H2.133v11.231L0.209,21.84V28
	h9.756v-8.257c-0.005-2.804,2.076-3.9,4.049-3.9c1.973,0,4.104,1.17,4.104,3.9V28h9.784v-6.16l-1.975-1.777V8.956z M17.948,12.989
	h-7.809v-2.104h7.809V12.989z M26.608,6.868l1.336-2.9h-3.046V1.985h-5.981V0H9.126v1.985H3.197v1.982H0.085l1.356,2.9H26.608z"/>
</svg>
