<?xml version="1.0" encoding="utf-8"?>
<!-- Generator: Adobe Illustrator 17.0.0, SVG Export Plug-In . SVG Version: 6.00 Build 0)  -->
<!DOCTYPE svg PUBLIC "-//W3C//DTD SVG 1.1//EN" "http://www.w3.org/Graphics/SVG/1.1/DTD/svg11.dtd">
<svg version="1.1" id="Icons" xmlns="http://www.w3.org/2000/svg" xmlns:xlink="http://www.w3.org/1999/xlink" x="0px" y="0px"
	 width="28px" height="28px" viewBox="0 0 28 28" enable-background="new 0 0 28 28" xml:space="preserve">
<path id="Rostov-on-Don_1_" fill="#FFFFFF" d="M27.973,10.811c-0.038-1.17,0.13-3.156-1.058-4.444
	c-0.669-0.65-1.548-1.34-2.658-1.352c-0.09,0-0.184,0.003-0.277,0.01c0.008-0.094,0.012-0.189,0.011-0.28
	C23.986,3.62,23.341,2.9,22.593,2.151c-1.053-1.082-2.407-1.145-3.566-1.126c-0.055,0-0.114,0.001-0.169,0.001L18.856,1
	l-3.801,0.141l3.4,3.822l0.543-0.029l-0.08-2.207c0.035,0,0.074-0.001,0.108-0.001c1.137,0.02,1.859,0.189,2.391,0.72
	c0.531,0.532,0.797,1.095,0.797,1.67c0,0.243-0.058,0.429-0.147,0.601c-0.267,0-0.534,0.088-0.75,0.306
	c-0.47,0.469-3.922,3.92-7.272,7.27L5.635,4.882c0.494-0.546,0.911-1.04,1.273-1.399c0.549-0.541,0.894-0.725,1.24-0.724
	C8.616,2.766,8.946,2.94,9.43,3.371c0.471,0.426,0.997,1.088,1.688,1.783l0.377-0.376l1.436,1.493V1.119l-2.201,1.152
	c-0.052-0.05-0.098-0.107-0.15-0.155c-0.606-0.564-1.413-1.061-2.43-1.055c-1.037,0.002-1.811,0.585-2.44,1.218
	C5.477,2.511,5.249,2.763,5.019,3.022H2.085v3.03c-0.267,0.237-0.527,0.472-0.766,0.71c-0.631,0.63-1.216,1.402-1.219,2.441
	c-0.009,1.015,0.492,1.822,1.055,2.429c0.01,0.011,0.021,0.02,0.031,0.029L0,13.924h5.152l-1.381-1.328l0.424-0.423H4.193
	c-0.693-0.691-1.357-1.218-1.782-1.689c-0.433-0.485-0.603-0.813-0.61-1.281C1.798,8.857,1.98,8.511,2.523,7.961
	c0.38-0.383,0.908-0.823,1.49-1.355l8.358,8.358c-2.713,2.713-4.987,4.987-4.987,4.987l0.057,0.769
	c-0.54-0.368-1.191-0.585-1.895-0.585c-1.868,0.002-3.374,1.522-3.374,3.389c0,1.867,1.504,3.391,3.374,3.394
	c1.869-0.003,3.375-1.526,3.375-3.394c0-0.715-0.224-1.377-0.602-1.924l0.52,0.182c0,0,2.372-2.372,5.175-5.176l2.702,2.702
	c-0.99,1.265-1.519,2.715-1.497,4.587h1.734c0.025-1.851,0.405-3.1,1.39-4.213l0.147,0.934l1.098,1.31
	c-0.257,0.479-0.417,1.018-0.417,1.599c0,1.867,1.504,3.391,3.374,3.394c1.869-0.003,3.375-1.526,3.375-3.394
	c0-1.866-1.506-3.387-3.375-3.389c-0.544,0-1.05,0.142-1.504,0.37l-1.096-1.096l-1.166-0.114l0.036-0.093
	c1.121-1.021,2.311-1.324,4.154-1.351v-1.735c-1.875-0.024-3.315,0.502-4.586,1.515l-2.697-2.697c3.311-3.311,6.695-6.694,7.27-7.27
	c0.21-0.211,0.32-0.429,0.358-0.639c0.162-0.052,0.381-0.076,0.739-0.076c0.884,0,1.63,0.757,1.63,0.757
	c0.386,0.305,0.556,1.423,0.586,2.415l-2.214-0.019v0.632l3.844,3.189v-2.56h0.072C27.973,11.215,27.973,11.025,27.973,10.811z
	 M5.546,25.376c-1.002-0.005-1.828-0.827-1.834-1.852h0.003c0.003-1.021,0.827-1.844,1.831-1.847
	c1.004,0.003,1.83,0.828,1.832,1.847C7.376,24.549,6.55,25.371,5.546,25.376z M24.378,23.524c-0.002,1.024-0.828,1.847-1.832,1.852
	c-1.002-0.005-1.828-0.827-1.834-1.852h0.003c0.003-1.021,0.827-1.844,1.831-1.847C23.55,21.681,24.376,22.506,24.378,23.524z"/>
</svg>
