<?xml version="1.0" encoding="utf-8"?>
<!-- Generator: Adobe Illustrator 17.0.0, SVG Export Plug-In . SVG Version: 6.00 Build 0)  -->
<!DOCTYPE svg PUBLIC "-//W3C//DTD SVG 1.1//EN" "http://www.w3.org/Graphics/SVG/1.1/DTD/svg11.dtd">
<svg version="1.1" id="Icons" xmlns="http://www.w3.org/2000/svg" xmlns:xlink="http://www.w3.org/1999/xlink" x="0px" y="0px"
	 width="28px" height="28px" viewBox="0 0 28 28" enable-background="new 0 0 28 28" xml:space="preserve">
<path id="Kazan" fill="#FFFFFF" d="M22.463,13.122c0.408-0.518,1.617-0.944,2.767-1.75c1.286-0.9,0.341-3.292,0.341-3.292
	s-0.369,1.978-1.235,2.34c-0.802,0.337-3.655,1.326-3.889,3.059c-1.225,0.579-2.336,1.616-3.649,1.616c-0.335,0-0.796,0-1.319,0
	c0.033-0.556,0.225-1.333,0.948-2.061c1.131-1.138,5.66-4.487,6.242-5.075c0.334-0.336,0.305-1.461,0.105-1.66
	c-0.353-0.352-0.342-0.368-0.733,0.025c-0.45,0.454-0.492,0.499-0.977,0.988c-0.486,0.489-1.236,0.223-1.703-0.247
	c-0.411-0.415-0.001-0.919,0.513-1.439c0.515-0.518,1.992-2.015,2.821-2.851c0.338-0.342,0.366-1.185,0.038-1.517
	c-0.287-0.288-0.629,0.091-1,0.464c0,0-2.04,2.055-2.391,2.408c-0.352,0.354-1.224,0.37-1.671-0.082
	c-0.447-0.451-0.35-0.797,0.196-1.35c0.547-0.55,0.813-0.834,0.813-0.834c0.321-0.324,0.572-1.318,0.151-1.739
	c-0.156-0.156-0.309-0.284-0.981,0.394c-1.648,1.66-1.727,1.738-4.113,4.124c-1.11,1.11-2.794,3.031-2.794,4.402
	c0,2.318,2.122,1.162,2.122,3.543c0,0.948-1.205,2.313-2.38,2.508c-0.201,0-0.382,0-0.528,0c-0.109-0.019-0.217-0.047-0.321-0.094
	c0.002,0.035,0.016,0.061,0.02,0.094c-0.03,0-0.067,0-0.088,0c-1.484,0-1.922-0.302-1.922-2.782c0-1.595,1.298-5.397,1.814-7.794
	H9.9V3.629c0,0,1.997-1.212,1.997-2.639h-1.301c0,0-0.177,0.436-0.436,0.922C9.835,2.525,9.38,3.218,8.994,3.218
	c-0.692,0-0.815-1.731-0.815-1.731L7.814,0.094L7.096,0.08L6.611,1.486c0,0-0.039,1.442-0.63,1.659
	C5.838,3.131,5.707,3.118,5.59,3.106C5.252,2.907,4.925,2.353,4.689,1.86C4.467,1.397,4.325,0.991,4.325,0.991H3.007
	c0,2.027,2.017,2.639,2.017,2.639v0.25L4.987,5.063L2.739,5.095c0,0-0.739-0.042-0.739,0.547c0,0.587,0.538,1.255,0.538,1.255h3.48
	c0,3.117-3.064,5.177-3.064,8.715c0,3.932,3.233,5.264,5.248,5.264c0.029,0,0.566,0,1.25,0.001c-0.646,1.483-1.854,4.22-2.067,4.436
	H7.178l-0.414-0.921l-1.048-1.349H4.059l-0.01,1.166l1.569,0.479v1.395H4.096l-0.109,0.809l0.698,1h1.316l0.523-1.111l1.15,0.026
	l0.891,1.038l1.297,0.047c0,0,0.301-1.837-1.516-1.837l0.783-0.986l2.556-4.191c0.498,0,0.859,0,0.883-0.001
	c0.168-0.006,0.324-0.022,0.48-0.039l2.815,4.164l0.559,1.132c-1.816,0-1.387,1.739-1.387,1.739h1.806l0.252-1.079l1.382-0.026
	l0.482,1.146h1.083l0.824-0.85l-0.017-1.046h-1.463v-1.266l1.417-0.638l0.003-1.049h-1.753l-0.844,1.407l-0.416,0.79h-0.409
	c-0.26-0.264-1.781-4.148-2.132-5.051c1.595-0.836,2.456-2.285,4.097-3.382c0.108-0.073,0.231-0.167,0.362-0.269
	c0.097,1.515,1.583,2.35,3.076,2.35c1.203,0,3.14-0.734,3.14-2.547C25.924,14.256,25,13.248,22.463,13.122z M22.83,17.33
	c-1.293-0.09-1.607-1.714-1.607-1.714l-0.783,0.47l-0.278,0.119c0.717-0.554,1.671-1.209,2.871-1.329
	C24.639,14.717,24.749,17.461,22.83,17.33z"/>
</svg>
