<?xml version="1.0" encoding="utf-8"?>
<!-- Generator: Adobe Illustrator 17.0.0, SVG Export Plug-In . SVG Version: 6.00 Build 0)  -->
<!DOCTYPE svg PUBLIC "-//W3C//DTD SVG 1.1//EN" "http://www.w3.org/Graphics/SVG/1.1/DTD/svg11.dtd">
<svg version="1.1" id="Icons" xmlns="http://www.w3.org/2000/svg" xmlns:xlink="http://www.w3.org/1999/xlink" x="0px" y="0px"
	 width="28px" height="28px" viewBox="0 0 28 28" enable-background="new 0 0 28 28" xml:space="preserve">
<path id="Rostov-on-Don" fill="#FFFFFF" d="M9.916,27.86v-4.646c0-2.481,1.715-4.472,4.064-4.472c2.349,0,4.216,1.894,4.216,4.472
	v4.646h6.741L22.599,17.81h2.285l0.021-5.796H22.2v3.177h-2.038l-1.334-8.229l4.006-1.846h0.17V0.14h-2.805v2.969h-2.327V0.14
	h-2.703v2.969h-2.276V0.14h-2.804v2.969H8.012V0.14H5.258v4.976h0.398l3.672,1.83L7.985,15.19H5.94v-3.099H3.062l0.149,5.718H5.59
	L3.135,27.86H9.916z M10.926,11.641c0-1.599,1.301-2.878,3.076-2.878c1.777,0,3.189,1.218,3.189,2.878c0,2.347,0,3.368,0,3.368
	h-6.266C10.926,15.009,10.926,13.237,10.926,11.641z"/>
</svg>
