<?xml version="1.0" encoding="utf-8"?>
<!-- Generator: Adobe Illustrator 17.0.0, SVG Export Plug-In . SVG Version: 6.00 Build 0)  -->
<!DOCTYPE svg PUBLIC "-//W3C//DTD SVG 1.1//EN" "http://www.w3.org/Graphics/SVG/1.1/DTD/svg11.dtd">
<svg version="1.1" id="Icons" xmlns="http://www.w3.org/2000/svg" xmlns:xlink="http://www.w3.org/1999/xlink" x="0px" y="0px"
	 width="28px" height="28px" viewBox="0 0 28 28" enable-background="new 0 0 28 28" xml:space="preserve">
<path id="Ufa" fill="#FFFFFF" d="M4.057,9.825c1.082,0,2.606,0.211,2.904,0.74c0,0,0,1.529,0,2.57c0,1.042-1.178,1.939-2.78,1.939
	c-1.604,0-2.939-0.083-2.939-0.083l-1.234,1.059c0,0-0.048,0.379,0.11,0.643c0.095,0.16,0.265,0.279,0.564,0.25
	c0.798-0.075,0.976-0.919,1.825-0.919s3.705,0.446,4.5,0.9v1.1l-5.024,1.05l-1.025,0.601l0.05,1.199l0.925-0.025l0.926-1
	l4.425-0.024l2.175-1.45c0,0,1.853,1.551,2.975,1.551c3.049,0,3.204-2.101,5.45-2.101c1.925,1.844,3.066,2.573,4.191,3.134
	c1.119,0.562,1.584,1.398,1.584,2.361c0,0.482,0.293,0.606,0.676,0.606c0.475,0,0.6,0.024,0.6-1c0-1.466-2.366-3.328-2.875-3.801
	c-0.392-0.365,0.992-1.486,1.45-1.125c1.544,1.206,3.386,2.577,3.226,3.7c-0.158,1.122,0.5,1.45,0.949,1.075
	c0.608-0.509-0.004-3.777-1.715-4.878c-0.188-1.84-1.599-3.311-2.109-3.872c-0.119-0.133-0.09-0.738-0.09-0.738
	s2.139-1.253,2.139-4.781c0-3.527-3.704-4.406-6.029-4.406c-3.81,0-5.491,0.119-6.32-2.1c-0.601,0.822-1.518,1.91-1.524,2.961
	c-0.006,1.62,1.684,2.965,4.745,2.965c6.311,0,8.18,1.449,5.854,5.125c-0.51-0.195-1.466-0.061-1.925-0.053
	c-2.01,0.029-3.715,1.102-6.654,1.102c-4.311,0-2.533-5.531-5.096-6.094C8.957,7.083,8.932,6,8.932,6L7.657,6.025L7.658,7H6.404
	L4.058,8.75L4.057,9.825z"/>
</svg>
